<svg xmlns="http://www.w3.org/2000/svg" xmlns:xlink="http://www.w3.org/1999/xlink" width="32" height="32" viewBox="0 0 32 32">
  <defs>
    <style>
      .cls-1 {
        fill: #d99d00;
      }

      .cls-2 {
        fill: #d4d7d9;
      }

      .cls-3 {
        fill: #fff1cc;
      }

      .cls-4 {
        clip-path: url(#clip-path);
      }

      .cls-5, .cls-9 {
        fill: none;
      }

      .cls-11, .cls-5, .cls-9 {
        stroke: #2150b7;
        stroke-linecap: round;
        stroke-linejoin: round;
        stroke-miterlimit: 10;
      }

      .cls-5 {
        stroke-width: 0.655px;
      }

      .cls-6 {
        fill: #d93200;
      }

      .cls-7 {
        fill: #d7f0ff;
      }

      .cls-8 {
        fill: #fff;
      }

      .cls-11, .cls-9 {
        stroke-width: 0.5px;
      }

      .cls-10 {
        fill: #e6f7ff;
      }

      .cls-11, .cls-13 {
        fill: #ffe090;
      }

      .cls-12 {
        fill: #2150b7;
      }
    </style>
    <clipPath id="clip-path">
      <circle id="Oval" class="cls-1" cx="16" cy="16" r="16"/>
    </clipPath>
  </defs>
  <g id="组_5048" data-name="组 5048" transform="translate(-1342 -20)">
    <circle id="Oval-2" data-name="Oval" class="cls-2" cx="16" cy="16" r="16" transform="translate(1342 20)"/>
    <circle id="Oval-3" data-name="Oval" class="cls-2" cx="16" cy="16" r="16" transform="translate(1342 20)"/>
    <g id="Group" transform="translate(1342 20)">
      <path id="Oval-4" data-name="Oval" class="cls-3" d="M16,0A16,16,0,1,1,0,16,16,16,0,0,1,16,0Z"/>
      <g id="Group-2" data-name="Group" class="cls-4">
        <g id="Group_2" data-name="Group 2" transform="translate(6.72 3.84)">
          <path id="Stroke_600" data-name="Stroke 600" class="cls-5" d="M0,5.849s4.31-.72,5.9-2.466A5.413,5.413,0,0,0,7.314,0" transform="translate(5.66)"/>
          <path id="Stroke_602" data-name="Stroke 602" class="cls-5" d="M1.241,0S2.2,3.667,0,6.067" transform="translate(8.925 0.655)"/>
          <path id="Stroke_604" data-name="Stroke 604" class="cls-5" d="M.174,0A3.932,3.932,0,0,1,0,2.575" transform="translate(8.054 2.401)"/>
          <path id="Fill_624" data-name="Fill 624" class="cls-1" d="M10.709,9.721a19.427,19.427,0,0,0,2.254-.878A16.332,16.332,0,0,0,11.1,9.49a1.587,1.587,0,0,0-.239,2.772c.936.589,4.811.676,6.073-.895C19.351,8.682,15.258,1.35,15.258,1.35S14.279.521,10.709.062A11.618,11.618,0,0,0,3.787,1.83S1.7,3.423.173,8.639c-1.088,3.71,3.309,3.4,3.309,3.4a4.855,4.855,0,0,0,4.027,2.2c3.221-.065,4.919-.633,6.073-1.549,0,0-2.431-.1-2.97-.655C10.193,11.61,10.709,9.721,10.709,9.721Z" transform="translate(0.871 16.149)"/>
          <path id="Fill_626" data-name="Fill 626" class="cls-6" d="M12.828,6.278s1.241-2.161.131-2.946c-1.132-.807-.675-.72-.958-1.615A3.114,3.114,0,0,0,9.8.058a29.005,29.005,0,0,0-3.592,0A20.16,20.16,0,0,0,1.727,1.39s-3.526,2.6-.5,3.928a17.249,17.249,0,0,1,2.46,2.772S9.781,3.441,12,4.685Z" transform="translate(4.353 12.876)"/>
          <path id="Fill_628" data-name="Fill 628" class="cls-7" d="M10.181,3.71C14.97,4.845,13.664,0,13.664,0S13.294.305.19,5.259C-1.269,8.533,6.154,8.642,6.154,8.642l-.239,3.274,2.111,2.837a33.553,33.553,0,0,1,3.414-3.076,15.084,15.084,0,0,1,3.072-1.812L12.532,3.8" transform="translate(0 5.019)"/>
          <path id="Stroke_702" data-name="Stroke 702" class="cls-8" d="M13.664,0S13.294.305.19,5.259C-1.269,8.533,6.154,8.642,6.154,8.642l-.239,3.274L8,14.83a34.453,34.453,0,0,1,3.6-3.37,12.185,12.185,0,0,1,3.185-1.616L12.642,3.709a4.225,4.225,0,0,0,.913-1.069A5.079,5.079,0,0,0,13.664,0Z" transform="translate(0 5.019)"/>
          <path id="Stroke_702-2" data-name="Stroke 702" class="cls-9" d="M10.181,3.71C14.97,4.845,13.664,0,13.664,0S13.294.305.19,5.259C-1.269,8.533,6.154,8.642,6.154,8.642l-.239,3.274" transform="translate(0 5.019)"/>
          <path id="Stroke_704" data-name="Stroke 704" class="cls-9" d="M9.447,0C6.639.131,2.286,5.063,2.286,5.063L0,1.833" transform="translate(5.66 14.84)"/>
          <path id="Stroke_706" data-name="Stroke 706" class="cls-9" d="M1.727,0s-3.526,2.6-.5,3.928A18.383,18.383,0,0,1,3.686,6.7s6.269-5.281,8.968-3.4" transform="translate(4.353 14.403)"/>
          <path id="Stroke_708" data-name="Stroke 708" class="cls-9" d="M3.748,0S1.506,1.55.135,6.809c-.936,3.6,3.309,3.4,3.309,3.4" transform="translate(0.871 17.895)"/>
          <path id="Stroke_710" data-name="Stroke 710" class="cls-9" d="M0,.089A2.054,2.054,0,0,1,2.59,1.464" transform="translate(2.394 24.224)"/>
          <path id="Fill_712" data-name="Fill 712" class="cls-8" d="M0,0H3.788L3.178,6.372H.631Z" transform="translate(6.748 22.696)"/>
          <path id="Stroke_714" data-name="Stroke 714" class="cls-9" d="M0,0H3.788L3.178,6.372H.631Z" transform="translate(6.748 22.696)"/>
          <path id="Stroke_716" data-name="Stroke 716" class="cls-9" d="M.2,0,0,3.885" transform="translate(5.007 21.823)"/>
          <path id="Fill_744" data-name="Fill 744" class="cls-10" d="M0,1.8A1.655,1.655,0,0,1,1.025.189a2.517,2.517,0,0,1,3.5,2.029C4.573,3.7,3.158,3.507,2.636,3.245c-.523-.24-.675-.982-1.328-.851C.677,2.546.067,2.546,0,1.8" transform="translate(2.394 25.752)"/>
          <path id="Stroke_746" data-name="Stroke 746" class="cls-11" d="M0,1.8A1.655,1.655,0,0,1,1.025.189a2.517,2.517,0,0,1,3.5,2.029C4.573,3.7,3.158,3.507,2.636,3.245c-.523-.24-.675-.982-1.328-.851C.677,2.546.067,2.546,0,1.8Z" transform="translate(2.394 25.752)"/>
          <path id="Fill_756" data-name="Fill 756" class="cls-12" d="M.871.436A.435.435,0,1,1,.435,0,.424.424,0,0,1,.871.436" transform="translate(5.877 9.384)"/>
          <path id="Stroke_758" data-name="Stroke 758" class="cls-9" d="M0,0,1.922,5.959" transform="translate(12.785 8.831)"/>
          <path id="Stroke_760" data-name="Stroke 760" class="cls-9" d="M5.1,0S9.195,7.2,6.779,9.886c-1.263,1.571-5.137,1.462-6.073.895A1.586,1.586,0,0,1,.945,8.009,22.458,22.458,0,0,1,4.624,6.9" transform="translate(11.101 17.677)"/>
          <path id="Stroke_762" data-name="Stroke 762" class="cls-9" d="M.174,2.4,0,0" transform="translate(14.149 22.478)"/>
          <path id="Stroke_764" data-name="Stroke 764" class="cls-9" d="M0,0A3.078,3.078,0,0,1,2.2,1.659c.283.873-.153.807.958,1.615,1.132.807-.131,2.815-.131,2.815" transform="translate(14.149 13.094)"/>
          <path id="Fill_766" data-name="Fill 766" class="cls-13" d="M3.651.524,2.672,0s.5,1.091-1.959,1.222c-1,.044-1.11,1.811.74,2.226,2.765.589,3.983-1.68,2.2-2.924" transform="translate(7.619 25.315)"/>
          <path id="Stroke_768" data-name="Stroke 768" class="cls-9" d="M3.651.524,2.672,0s.5,1.091-1.959,1.222c-1,.044-1.11,1.811.74,2.226C4.217,4.037,5.436,1.767,3.651.524Z" transform="translate(7.619 25.315)"/>
        </g>
      </g>
    </g>
  </g>
</svg>
