<svg xmlns="http://www.w3.org/2000/svg" xmlns:xlink="http://www.w3.org/1999/xlink" width="16" height="16" viewBox="0 0 16 16">
  <defs>
    <style>
      .cls-1 {
        fill: none;
      }

      .cls-1, .cls-2 {
        clip-rule: evenodd;
      }

      .cls-2, .cls-6 {
        fill: #c3a476;
      }

      .cls-3 {
        clip-path: url(#clip-path);
      }

      .cls-4 {
        fill: rgba(215,215,215,0);
      }

      .cls-5 {
        clip-path: url(#clip-path-2);
      }
    </style>
    <clipPath id="clip-path">
      <path id="路径_10" data-name="路径 10" class="cls-1" d="M0-16H16V0H0Z"/>
    </clipPath>
    <clipPath id="clip-path-2">
      <path id="路径_12" data-name="路径 12" class="cls-2" d="M15.835-2.266H14.784V-12.835a.332.332,0,0,0-.238-.311l-4.5-1.824a.422.422,0,0,0-.521.167.414.414,0,0,0-.037.183V-2.266H8.474v-9.557a.366.366,0,0,0-.366-.374.461.461,0,0,0-.183.024L3.408-10.35a.34.34,0,0,0-.238.311v7.773H2.165A.154.154,0,0,0,2-2.123v.98A.221.221,0,0,0,2.073-1H15.744c.183,0,.256-.064.256-.143v-.98A.154.154,0,0,0,15.835-2.266Zm-8.8-1.959a.173.173,0,0,1-.183.159H4.816a.173.173,0,0,1-.183-.159v-.956a.173.173,0,0,1,.183-.159H6.856a.173.173,0,0,1,.183.159Zm0-2.572a.173.173,0,0,1-.183.159H4.816A.173.173,0,0,1,4.634-6.8v-.956a.173.173,0,0,1,.183-.159H6.856a.173.173,0,0,1,.183.159ZM13.3-4.225a.173.173,0,0,1-.183.159H11.08a.173.173,0,0,1-.183-.159v-.956a.173.173,0,0,1,.183-.159H13.12a.173.173,0,0,1,.183.159Zm0-2.572a.173.173,0,0,1-.183.159H11.08A.173.173,0,0,1,10.9-6.8v-.956a.173.173,0,0,1,.183-.159H13.12a.173.173,0,0,1,.183.159Zm0-2.564a.173.173,0,0,1-.183.159H11.08a.173.173,0,0,1-.183-.159v-.956a.173.173,0,0,1,.183-.159H13.12a.173.173,0,0,1,.183.159Z" transform="translate(0 0)"/>
    </clipPath>
  </defs>
  <g id="公司库选中" transform="translate(0 16)">
    <g id="组_5621" data-name="组 5621" class="cls-3">
      <path id="路径_9" data-name="路径 9" class="cls-4" d="M-5,5H21V-21H-5Z"/>
    </g>
    <g id="组_5622" data-name="组 5622" class="cls-5" transform="translate(-1)">
      <path id="路径_11" data-name="路径 11" class="cls-6" d="M-3,4.161H22.667V-20H-3Z" transform="translate(-0.833 -0.08)"/>
    </g>
  </g>
</svg>
