<svg xmlns="http://www.w3.org/2000/svg" xmlns:xlink="http://www.w3.org/1999/xlink" width="16" height="16" viewBox="0 0 16 16">
  <defs>
    <style>
      .cls-1 {
        fill: none;
      }

      .cls-2 {
        clip-path: url(#clip-path);
      }

      .cls-3 {
        fill: rgba(0,0,0,0);
      }

      .cls-4 {
        clip-path: url(#clip-path-2);
      }

      .cls-5 {
        fill: #fff;
      }
    </style>
    <clipPath id="clip-path">
      <path id="路径_2" data-name="路径 2" class="cls-1" d="M0-16H16V0H0Z"/>
    </clipPath>
    <clipPath id="clip-path-2">
      <path id="路径_4" data-name="路径 4" class="cls-1" d="M13.353-11.489a.5.5,0,0,1,.147.353V-1.5A.5.5,0,0,1,13-1H3a.5.5,0,0,1-.5-.5v-13A.5.5,0,0,1,3-15H9.636a.5.5,0,0,1,.355.147Zm-1.006.583L9.406-13.847v2.941ZM5-8.469a.125.125,0,0,0-.125.125v.75A.125.125,0,0,0,5-7.469h6a.125.125,0,0,0,.125-.125v-.75A.125.125,0,0,0,11-8.469ZM5-6.344a.125.125,0,0,0-.125.125v.75A.125.125,0,0,0,5-5.344H7.875A.125.125,0,0,0,8-5.469v-.75a.125.125,0,0,0-.125-.125Z"/>
    </clipPath>
  </defs>
  <g id="新闻库" transform="translate(0 16)">
    <g id="组_5615" data-name="组 5615" class="cls-2">
      <path id="路径_1" data-name="路径 1" class="cls-3" d="M-5,5H21V-21H-5Z"/>
    </g>
    <g id="组_5616" data-name="组 5616" class="cls-4">
      <path id="路径_3" data-name="路径 3" class="cls-5" d="M-2.5,4h21V-20h-21Z"/>
    </g>
  </g>
</svg>
